<?xml version="1.0" encoding="utf-8"?>
<!-- Generator: Adobe Illustrator 26.0.1, SVG Export Plug-In . SVG Version: 6.00 Build 0)  -->
<svg version="1.1" xmlns="http://www.w3.org/2000/svg" xmlns:xlink="http://www.w3.org/1999/xlink" x="0px" y="0px"
	 viewBox="0 0 750 225" style="enable-background:new 0 0 750 225;" xml:space="preserve">
<style type="text/css">
	.st0{display:none;}
	.st1{display:inline;fill:url(#SVGID_1_);}
	.st2{display:inline;}
	.st3{clip-path:url(#SVGID_00000062898695039587720700000006826228324584365733_);}
	.st4{fill-rule:evenodd;clip-rule:evenodd;fill:#758230;}
	.st5{fill-rule:evenodd;clip-rule:evenodd;fill:#1F1A17;}
	.st6{fill:#1D1D1B;}
	.st7{font-family:'Impact';}
	.st8{font-size:120px;}
	.st9{letter-spacing:6;}
	.st10{font-size:30px;}
	.st11{letter-spacing:1.026;}
</style>
<g id="Layer_4" class="st0">
	<radialGradient id="SVGID_1_" cx="522.5481" cy="110.4222" r="464.6317" gradientUnits="userSpaceOnUse">
		<stop  offset="0.0219" style="stop-color:#FFFFFF"/>
		<stop  offset="0.0783" style="stop-color:#ECECEC"/>
		<stop  offset="0.3412" style="stop-color:#999999"/>
		<stop  offset="0.5739" style="stop-color:#585858"/>
		<stop  offset="0.7679" style="stop-color:#282828"/>
		<stop  offset="0.9157" style="stop-color:#0B0B0B"/>
		<stop  offset="1" style="stop-color:#000000"/>
	</radialGradient>
	<rect class="st1" width="750" height="225"/>
</g>
<g id="Layer_3" class="st0">
	<g class="st2">
		<g>
			<defs>
				<rect id="SVGID_00000046306911710961173300000018235369503698308516_" width="750" height="225"/>
			</defs>
			<clipPath id="SVGID_00000165198808097914801460000002032938488476631948_">
				<use xlink:href="#SVGID_00000046306911710961173300000018235369503698308516_"  style="overflow:visible;"/>
			</clipPath>
			<g style="clip-path:url(#SVGID_00000165198808097914801460000002032938488476631948_);">
			</g>
		</g>
	</g>
</g>
<g id="Layer_1">
	<path class="st4" d="M109.214,84.735c1.302-3.856,7.1-11.45,12.078-16.17c5.83-5.527,29.753-19.451,35.152-16.876
		c2.816,1.347-4.978,8.587-11.658,11.028C131.93,67.417,116.063,78.91,109.214,84.735 M58.664,111.043
		c19.716-19.994,52.139,10.115,57.262,23.446c1.74,4.532,5.795-6.251,5.827-6.74c0.913-13.88-20.658-29.624-13.006-47.707
		c2.321-5.302,6.064-9.321,9.797-12.974c8.36-8.183,27.789-19.458,35.846-31.792c3.994-6.121,2.472-21.983-3.202-13.718
		c-6.308,9.184-10.688,14.427-17.254,20.053c-6.973,5.977-15.368,13.683-35.033,25.661C74.013,82.43,44.151,102.22,58.664,111.043z"
		/>
	<path class="st4" d="M160.366,140.368c-1.298,3.856-7.1,11.45-12.078,16.169c-5.827,5.53-29.754,19.452-35.149,16.876
		c-2.82-1.348,4.974-8.586,11.654-11.028C137.65,157.686,153.517,146.192,160.366,140.368 M210.919,114.058
		c-19.717,19.995-52.141-10.115-57.264-23.445c-1.74-4.532-5.791,6.251-5.823,6.739c-0.916,13.881,20.658,29.625,13.005,47.708
		c-2.324,5.301-6.067,9.32-9.799,12.973c-8.357,8.187-27.79,19.458-35.842,31.791c-3.997,6.12-2.476,21.984,3.202,13.719
		c6.308-9.184,10.684-14.427,17.25-20.053c6.977-5.979,15.369-13.684,35.036-25.66C195.568,142.672,225.431,122.88,210.919,114.058z
		"/>
	<path class="st5" d="M203.998,69.713l-1.525,5.188c-1.02,3.484-0.516,5.36,7.443,14.982l10.301,12.453l-11.475-11.349
		c-7.693-7.609-10.161-9.574-14.27-8.76l-5.312,1.06l1.522-5.191c1.018-3.485,0.52-5.355-7.444-14.981l-10.297-12.45l11.469,11.345
		c7.693,7.609,10.166,9.579,14.27,8.759"/>
	<path class="st5" d="M222.845,63.244l-0.622,1.846c-0.418,1.238-0.272,1.886,2.388,5.132l3.44,4.201l-3.872-3.792
		c-2.6-2.547-3.439-3.194-4.903-2.84l-1.898,0.455l0.624-1.843c0.416-1.24,0.27-1.888-2.388-5.132l-3.44-4.2l3.872,3.792
		c2.596,2.544,3.439,3.194,4.903,2.84"/>
	<path class="st5" d="M194.148,41.668l-0.728,2.667c-0.484,1.792-0.206,2.767,4.015,7.846l5.455,6.565l-6.048-6.008
		c-4.056-4.03-5.353-5.077-7.459-4.701l-2.728,0.487l0.724-2.671c0.485-1.793,0.202-2.77-4.011-7.842l-5.459-6.569l6.048,6.009
		c4.057,4.03,5.353,5.077,7.461,4.701"/>
</g>
<g id="Layer_2">
	<text id="ЧАКЛУН" transform="matrix(1 0 0 1 272.4301 116.3234)"><tspan x="0" y="0" class="st6 st7 st8 st9">ЧАКЛУН</tspan><tspan x="196.436" y="144" class="st6 st7 st8 st9"> </tspan></text>
	<text transform="matrix(0.9749 0 0 1 360.2686 169.0527)"><tspan x="0" y="0" class="st6 st7 st10 st11">РОЗВІДУВАЛЬНИЙ</tspan><tspan x="-135.672" y="36" class="st6 st7 st10 st11">БЕЗПІЛОТНИЙ АВІАЦІЙНИЙ КОМПЛЕКС</tspan></text>
</g>
</svg>
